<svg xmlns="http://www.w3.org/2000/svg" id="export" class="canvas" preserveAspectRatio="xMidYMid meet" style="" width="222" height="837"><rect id="background" fill="#fff" pointer-events="all" width="222" height="837"/><g id="origin" transform="translate(10.068164062500001, 10.068164062500001) scale(1)"><g id="clusters" class="clusters"/><g id="edge-paths" class="edge-paths" style="pointer-events: none;"><defs><marker id="arrowhead" viewBox="0 0 10 10" refX="9" refY="5" markerUnits="strokeWidth" markerWidth="8" markerHeight="6" orient="auto" style="fill: rgb(0, 0, 0);"><path d="M 0 0 L 10 5 L 0 10 L 4 5 z" style="stroke-width: 1;"/></marker><marker id="arrowhead-select" viewBox="0 0 10 10" refX="9" refY="5" markerUnits="strokeWidth" markerWidth="8" markerHeight="6" orient="auto" style="fill: rgba(220, 0, 0, 0.9);"><path d="M 0 0 L 10 5 L 0 10 L 4 5 z" style="stroke-width: 1;"/></marker><marker id="arrowhead-hover" viewBox="0 0 10 10" refX="9" refY="5" markerUnits="strokeWidth" markerWidth="8" markerHeight="6" orient="auto" style="fill: rgba(220, 0, 0, 0.9);"><path d="M 0 0 L 10 5 L 0 10 L 4 5 z" style="stroke-width: 1;"/></marker></defs><path id="edge-%x.1" class="edge-path" d="M87.0625,21L87.0625,22.666666666666668C87.0625,24.333333333333332,87.0625,27.666666666666668,87.0625,31C87.0625,34.333333333333336,87.0625,37.666666666666664,87.0625,41C87.0625,44.333333333333336,87.0625,47.666666666666664,87.0625,51C87.0625,54.333333333333336,87.0625,57.666666666666664,87.0625,59.333333333333336L87.0625,61" style="stroke: rgb(0, 0, 0); stroke-width: 1px; fill: none; marker-end: url(&quot;#arrowhead&quot;);"/><path id="edge-%input0.1" class="edge-path" d="M87.0625,114L87.0625,115.66666666666667C87.0625,117.33333333333333,87.0625,120.66666666666667,87.0625,124C87.0625,127.33333333333333,87.0625,130.66666666666666,87.0625,132.33333333333334L87.0625,134" style="stroke: rgb(0, 0, 0); stroke-width: 1px; fill: none; marker-end: url(&quot;#arrowhead&quot;);"/><path id="edge-%input1.1" class="edge-path" d="M87.0625,155L87.0625,156.66666666666666C87.0625,158.33333333333334,87.0625,161.66666666666666,87.0625,165C87.0625,168.33333333333334,87.0625,171.66666666666666,87.0625,173.33333333333334L87.0625,175" style="stroke: rgb(0, 0, 0); stroke-width: 1px; fill: none; marker-end: url(&quot;#arrowhead&quot;);"/><path id="edge-%input2.1" class="edge-path" d="M87.0625,228L87.0625,229.66666666666666C87.0625,231.33333333333334,87.0625,234.66666666666666,87.0625,238C87.0625,241.33333333333334,87.0625,244.66666666666666,87.0625,246.33333333333334L87.0625,248" style="stroke: rgb(0, 0, 0); stroke-width: 1px; fill: none; marker-end: url(&quot;#arrowhead&quot;);"/><path id="edge-%input3.1" class="edge-path" d="M87.0625,269L87.0625,270.6666666666667C87.0625,272.3333333333333,87.0625,275.6666666666667,87.0625,279C87.0625,282.3333333333333,87.0625,285.6666666666667,87.0625,287.3333333333333L87.0625,289" style="stroke: rgb(0, 0, 0); stroke-width: 1px; fill: none; marker-end: url(&quot;#arrowhead&quot;);"/><path id="edge-%input4.1" class="edge-path" d="M87.0625,310L87.0625,311.6666666666667C87.0625,313.3333333333333,87.0625,316.6666666666667,87.0625,320C87.0625,323.3333333333333,87.0625,326.6666666666667,87.0625,328.3333333333333L87.0625,330" style="stroke: rgb(0, 0, 0); stroke-width: 1px; fill: none; marker-end: url(&quot;#arrowhead&quot;);"/><path id="edge-%input5.1" class="edge-path" d="M87.0625,383L87.0625,384.6666666666667C87.0625,386.3333333333333,87.0625,389.6666666666667,87.0625,393C87.0625,396.3333333333333,87.0625,399.6666666666667,87.0625,401.3333333333333L87.0625,403" style="stroke: rgb(0, 0, 0); stroke-width: 1px; fill: none; marker-end: url(&quot;#arrowhead&quot;);"/><path id="edge-%input6.1" class="edge-path" d="M87.0625,424L87.0625,425.6666666666667C87.0625,427.3333333333333,87.0625,430.6666666666667,87.0625,434C87.0625,437.3333333333333,87.0625,440.6666666666667,87.0625,442.3333333333333L87.0625,444" style="stroke: rgb(0, 0, 0); stroke-width: 1px; fill: none; marker-end: url(&quot;#arrowhead&quot;);"/><path id="edge-%input7.1" class="edge-path" d="M87.0625,465L87.0625,466.6666666666667C87.0625,468.3333333333333,87.0625,471.6666666666667,87.0625,475C87.0625,478.3333333333333,87.0625,481.6666666666667,87.0625,483.3333333333333L87.0625,485" style="stroke: rgb(0, 0, 0); stroke-width: 1px; fill: none; marker-end: url(&quot;#arrowhead&quot;);"/><path id="edge-%input8.1" class="edge-path" d="M87.0625,538L87.0625,539.6666666666666C87.0625,541.3333333333334,87.0625,544.6666666666666,87.0625,548C87.0625,551.3333333333334,87.0625,554.6666666666666,87.0625,556.3333333333334L87.0625,558" style="stroke: rgb(0, 0, 0); stroke-width: 1px; fill: none; marker-end: url(&quot;#arrowhead&quot;);"/><path id="edge-%input9.1" class="edge-path" d="M70.171875,573.4703936301447L61.376302083333336,576.058661358454C52.580729166666664,578.6469290867632,34.989583333333336,583.8234645433816,26.194010416666668,588.0818169071075C17.3984375,592.3401692708334,17.3984375,595.6803385416666,17.3984375,597.3504231770834L17.3984375,599.0205078125" style="stroke: rgb(0, 0, 0); stroke-width: 1px; fill: none; marker-end: url(&quot;#arrowhead&quot;);"/><path id="edge-%input9.1" class="edge-path" d="M103.953125,575.2940522725531L109.63216145833333,577.5783768937943C115.31119791666667,579.8627015150354,126.66927083333333,584.4313507575176,132.34830729166666,588.3823420454255C138.02734375,592.3333333333334,138.02734375,595.6666666666666,138.02734375,597.3333333333334L138.02734375,599" style="stroke: rgb(0, 0, 0); stroke-width: 1px; fill: none; marker-end: url(&quot;#arrowhead&quot;);"/><path id="edge-%77" class="edge-path" d="M17.3984375,620.0205078125L17.3984375,621.6905924479166C17.3984375,623.3606770833334,17.3984375,626.7008463541666,17.3984375,630.03759765625C17.3984375,633.3743489583334,17.3984375,636.7076822916666,17.3984375,638.3743489583334L17.3984375,640.041015625" style="stroke: rgb(0, 0, 0); stroke-width: 1px; fill: none; marker-end: url(&quot;#arrowhead&quot;);"/><path id="edge-%78" class="edge-path" d="M17.3984375,661.041015625L17.3984375,662.7076822916666C17.3984375,664.3743489583334,17.3984375,667.7076822916666,19.470052083333332,671.0854667743547C21.541666666666668,674.4632512570428,25.684895833333332,677.8854868890854,27.756510416666668,679.5966047051069L29.828125,681.3077225211282" style="stroke: rgb(0, 0, 0); stroke-width: 1px; fill: none; marker-end: url(&quot;#arrowhead&quot;);"/><path id="edge-%79" class="edge-path" d="M67.0859375,661.041015625L67.0859375,662.7076822916666C67.0859375,664.3743489583334,67.0859375,667.7076822916666,65.01432291666667,671.0854667743547C62.942708333333336,674.4632512570428,58.799479166666664,677.8854868890854,56.727864583333336,679.5966047051069L54.65625,681.3077225211282" style="stroke: rgb(0, 0, 0); stroke-width: 1px; fill: none; marker-end: url(&quot;#arrowhead&quot;);"/><path id="edge-%80" class="edge-path" d="M42.2421875,702.08203125L42.2421875,703.7486979166666C42.2421875,705.4153645833334,42.2421875,708.7486979166666,42.2421875,714.7486979166666C42.2421875,720.7486979166666,42.2421875,729.4153645833334,42.2421875,733.7486979166666L42.2421875,738.08203125" style="stroke: rgb(0, 0, 0); stroke-width: 1px; fill: none; marker-end: url(&quot;#arrowhead&quot;);"/><path id="edge-%x0.1" class="edge-path" d="M128.44057919502214,620.041015625L126.92183682918511,621.7076822916666C125.4030944633481,623.3743489583334,122.36560973167404,626.7076822916666,120.84686736583701,630.041015625C119.328125,633.3743489583334,119.328125,636.7076822916666,119.328125,638.3743489583334L119.328125,640.041015625" style="stroke: rgb(0, 0, 0); stroke-width: 1px; fill: none; marker-end: url(&quot;#arrowhead&quot;);"/><path id="edge-%x0.1" class="edge-path" d="M147.61410830497786,620.041015625L149.1328506708149,621.7076822916666C150.65159303665192,623.3743489583334,153.68907776832597,626.7076822916666,155.20782013416297,631.791015625C156.7265625,636.8743489583334,156.7265625,643.7076822916666,156.7265625,650.541015625C156.7265625,657.3743489583334,156.7265625,664.2076822916666,155.20470552579556,669.29443359375C153.6828485515911,674.3811848958334,150.63913460318216,677.7213541666666,149.11727762897772,679.3914388020834L147.59542065477325,681.0615234375" style="stroke: rgb(0, 0, 0); stroke-width: 1px; fill: none; marker-end: url(&quot;#arrowhead&quot;);"/><path id="edge-%10" class="edge-path" d="M119.328125,661.041015625L119.328125,662.7076822916666C119.328125,664.3743489583334,119.328125,667.7076822916666,120.84998197420445,671.04443359375C122.37183894840892,674.3811848958334,125.41555289681783,677.7213541666666,126.93740987102228,679.3914388020834L128.45926684522675,681.0615234375" style="stroke: rgb(0, 0, 0); stroke-width: 1px; fill: none; marker-end: url(&quot;#arrowhead&quot;);"/><path id="edge-%x1.1" class="edge-path" d="M138.02734375,702.0615234375L138.02734375,703.7316080729166C138.02734375,705.4016927083334,138.02734375,708.7418619791666,138.02734375,712.07861328125C138.02734375,715.4153645833334,138.02734375,718.7486979166666,138.02734375,720.4153645833334L138.02734375,722.08203125" style="stroke: rgb(0, 0, 0); stroke-width: 1px; fill: none; marker-end: url(&quot;#arrowhead&quot;);"/><path id="edge-%84" class="edge-path" d="M138.02734375,775.08203125L138.02734375,776.7486979166666C138.02734375,778.4153645833334,138.02734375,781.7486979166666,138.02734375,785.08203125C138.02734375,788.4153645833334,138.02734375,791.7486979166666,138.02734375,793.4153645833334L138.02734375,795.08203125" style="stroke: rgb(0, 0, 0); stroke-width: 1px; fill: none; marker-end: url(&quot;#arrowhead&quot;);"/></g><g id="edge-labels" class="edge-labels"/><g id="nodes" class="nodes"><g id="input-name-x.1" class="node graph-input" style="" transform="translate(73.0546875,0)"><g class="node-item graph-item-input" transform="translate(0,0)"><path d="M5,0h18.015625a5,5 0 0 1 5,5v11a5,5 0 0 1 -5,5h-18.015625a5,5 0 0 1 -5,-5v-11a5,5 0 0 1 5,-5z" style="stroke: rgb(0, 0, 0); fill: rgb(238, 238, 238); stroke-width: 0;"/><text x="6" y="15" style="font-family: -apple-system, BlinkMacSystemFont, &quot;Segoe WPC&quot;, &quot;Segoe UI&quot;, Ubuntu, &quot;Droid Sans&quot;, sans-serif, &quot;PingFang SC&quot;; font-size: 11px; text-rendering: geometricprecision; user-select: none;">x.1</text></g><path class="node node-border" d="M5,0h18.015625a5,5 0 0 1 5,5v11a5,5 0 0 1 -5,5h-18.015625a5,5 0 0 1 -5,-5v-11a5,5 0 0 1 5,-5z" style="stroke: rgb(51, 51, 51); fill: none; stroke-width: 1px;"/></g><g id="node-id-0" class="node graph-node" style="" transform="translate(33.0625,61)"><g class="node-item node-item-type node-item-type-layer" transform="translate(0,0)"><path d="M5,0h98a5,5 0 0 1 5,5v16a0,0 0 0 1 0,0h-108a0,0 0 0 1 0,0v-16a5,5 0 0 1 5,-5z" style="stroke: rgb(0, 0, 0); fill: rgb(51, 85, 136); stroke-width: 0;"/><text x="6" y="15" style="font-family: -apple-system, BlinkMacSystemFont, &quot;Segoe WPC&quot;, &quot;Segoe UI&quot;, Ubuntu, &quot;Droid Sans&quot;, sans-serif, &quot;PingFang SC&quot;; font-size: 11px; text-rendering: geometricprecision; user-select: none; fill: rgb(255, 255, 255);">conv2d</text></g><g class="node-argument-list" transform="translate(0,21)"><path d="M0,0h108a0,0 0 0 1 0,0v27a5,5 0 0 1 -5,5h-98a5,5 0 0 1 -5,-5v-27a0,0 0 0 1 0,0z" style="stroke: rgb(0, 0, 0); fill: rgb(255, 255, 255); stroke-width: 0;"/><g class="node-argument"><rect rx="3" ry="3" x="3" y="3" width="102" height="13" style="fill: transparent;"/><text xml:space="preserve" x="6" y="13" style="font-family: -apple-system, BlinkMacSystemFont, &quot;Segoe WPC&quot;, &quot;Segoe UI&quot;, Ubuntu, &quot;Droid Sans&quot;, sans-serif, &quot;PingFang SC&quot;; font-size: 9px; font-weight: normal; text-rendering: geometricprecision; user-select: none;"><title>float32[32,3,3,3]</title><tspan style="font-weight: bold;">weight</tspan><tspan>〈32×3×3×3〉</tspan></text></g><g class="node-argument"><rect rx="3" ry="3" x="3" y="16" width="102" height="13" style="fill: transparent;"/><text xml:space="preserve" x="6" y="26" style="font-family: -apple-system, BlinkMacSystemFont, &quot;Segoe WPC&quot;, &quot;Segoe UI&quot;, Ubuntu, &quot;Droid Sans&quot;, sans-serif, &quot;PingFang SC&quot;; font-size: 9px; font-weight: normal; text-rendering: geometricprecision; user-select: none;"><title>float32[32]</title><tspan style="font-weight: bold;">bias</tspan><tspan>〈32〉</tspan></text></g><line class="node" x1="0" x2="108" y1="0" y2="0" style="stroke: rgb(51, 51, 51); fill: none; stroke-width: 1px;"/></g><path class="node node-border" d="M5,0h98a5,5 0 0 1 5,5v43a5,5 0 0 1 -5,5h-98a5,5 0 0 1 -5,-5v-43a5,5 0 0 1 5,-5z" style="stroke: rgb(51, 51, 51); fill: none; stroke-width: 1px;"/></g><g id="node-id-1" class="node graph-node" style="" transform="translate(70.171875,134)"><g class="node-item node-item-type node-item-type-activation" transform="translate(0,0)"><path d="M5,0h23.78125a5,5 0 0 1 5,5v11a5,5 0 0 1 -5,5h-23.78125a5,5 0 0 1 -5,-5v-11a5,5 0 0 1 5,-5z" style="stroke: rgb(0, 0, 0); fill: rgb(112, 41, 33); stroke-width: 0;"/><text x="6" y="15" style="font-family: -apple-system, BlinkMacSystemFont, &quot;Segoe WPC&quot;, &quot;Segoe UI&quot;, Ubuntu, &quot;Droid Sans&quot;, sans-serif, &quot;PingFang SC&quot;; font-size: 11px; text-rendering: geometricprecision; user-select: none; fill: rgb(255, 255, 255);">relu</text></g><path class="node node-border" d="M5,0h23.78125a5,5 0 0 1 5,5v11a5,5 0 0 1 -5,5h-23.78125a5,5 0 0 1 -5,-5v-11a5,5 0 0 1 5,-5z" style="stroke: rgb(51, 51, 51); fill: none; stroke-width: 1px;"/></g><g id="node-id-2" class="node graph-node" style="" transform="translate(30.0390625,175)"><g class="node-item node-item-type node-item-type-layer" transform="translate(0,0)"><path d="M5,0h104.046875a5,5 0 0 1 5,5v16a0,0 0 0 1 0,0h-114.046875a0,0 0 0 1 0,0v-16a5,5 0 0 1 5,-5z" style="stroke: rgb(0, 0, 0); fill: rgb(51, 85, 136); stroke-width: 0;"/><text x="6" y="15" style="font-family: -apple-system, BlinkMacSystemFont, &quot;Segoe WPC&quot;, &quot;Segoe UI&quot;, Ubuntu, &quot;Droid Sans&quot;, sans-serif, &quot;PingFang SC&quot;; font-size: 11px; text-rendering: geometricprecision; user-select: none; fill: rgb(255, 255, 255);">conv2d</text></g><g class="node-argument-list" transform="translate(0,21)"><path d="M0,0h114.046875a0,0 0 0 1 0,0v27a5,5 0 0 1 -5,5h-104.046875a5,5 0 0 1 -5,-5v-27a0,0 0 0 1 0,0z" style="stroke: rgb(0, 0, 0); fill: rgb(255, 255, 255); stroke-width: 0;"/><g class="node-argument"><rect rx="3" ry="3" x="3" y="3" width="108.046875" height="13" style="fill: transparent;"/><text xml:space="preserve" x="6" y="13" style="font-family: -apple-system, BlinkMacSystemFont, &quot;Segoe WPC&quot;, &quot;Segoe UI&quot;, Ubuntu, &quot;Droid Sans&quot;, sans-serif, &quot;PingFang SC&quot;; font-size: 9px; font-weight: normal; text-rendering: geometricprecision; user-select: none;"><title>float32[64,32,3,3]</title><tspan style="font-weight: bold;">weight</tspan><tspan>〈64×32×3×3〉</tspan></text></g><g class="node-argument"><rect rx="3" ry="3" x="3" y="16" width="108.046875" height="13" style="fill: transparent;"/><text xml:space="preserve" x="6" y="26" style="font-family: -apple-system, BlinkMacSystemFont, &quot;Segoe WPC&quot;, &quot;Segoe UI&quot;, Ubuntu, &quot;Droid Sans&quot;, sans-serif, &quot;PingFang SC&quot;; font-size: 9px; font-weight: normal; text-rendering: geometricprecision; user-select: none;"><title>float32[64]</title><tspan style="font-weight: bold;">bias</tspan><tspan>〈64〉</tspan></text></g><line class="node" x1="0" x2="114.046875" y1="0" y2="0" style="stroke: rgb(51, 51, 51); fill: none; stroke-width: 1px;"/></g><path class="node node-border" d="M5,0h104.046875a5,5 0 0 1 5,5v43a5,5 0 0 1 -5,5h-104.046875a5,5 0 0 1 -5,-5v-43a5,5 0 0 1 5,-5z" style="stroke: rgb(51, 51, 51); fill: none; stroke-width: 1px;"/></g><g id="node-id-3" class="node graph-node" style="" transform="translate(70.171875,248)"><g class="node-item node-item-type node-item-type-activation" transform="translate(0,0)"><path d="M5,0h23.78125a5,5 0 0 1 5,5v11a5,5 0 0 1 -5,5h-23.78125a5,5 0 0 1 -5,-5v-11a5,5 0 0 1 5,-5z" style="stroke: rgb(0, 0, 0); fill: rgb(112, 41, 33); stroke-width: 0;"/><text x="6" y="15" style="font-family: -apple-system, BlinkMacSystemFont, &quot;Segoe WPC&quot;, &quot;Segoe UI&quot;, Ubuntu, &quot;Droid Sans&quot;, sans-serif, &quot;PingFang SC&quot;; font-size: 11px; text-rendering: geometricprecision; user-select: none; fill: rgb(255, 255, 255);">relu</text></g><path class="node node-border" d="M5,0h23.78125a5,5 0 0 1 5,5v11a5,5 0 0 1 -5,5h-23.78125a5,5 0 0 1 -5,-5v-11a5,5 0 0 1 5,-5z" style="stroke: rgb(51, 51, 51); fill: none; stroke-width: 1px;"/></g><g id="node-id-4" class="node graph-node" style="" transform="translate(47.8515625,289)"><g class="node-item node-item-type node-item-type-pool" transform="translate(0,0)"><path d="M5,0h68.421875a5,5 0 0 1 5,5v11a5,5 0 0 1 -5,5h-68.421875a5,5 0 0 1 -5,-5v-11a5,5 0 0 1 5,-5z" style="stroke: rgb(0, 0, 0); fill: rgb(51, 85, 51); stroke-width: 0;"/><text x="6" y="15" style="font-family: -apple-system, BlinkMacSystemFont, &quot;Segoe WPC&quot;, &quot;Segoe UI&quot;, Ubuntu, &quot;Droid Sans&quot;, sans-serif, &quot;PingFang SC&quot;; font-size: 11px; text-rendering: geometricprecision; user-select: none; fill: rgb(255, 255, 255);">max_pool2d</text></g><path class="node node-border" d="M5,0h68.421875a5,5 0 0 1 5,5v11a5,5 0 0 1 -5,5h-68.421875a5,5 0 0 1 -5,-5v-11a5,5 0 0 1 5,-5z" style="stroke: rgb(51, 51, 51); fill: none; stroke-width: 1px;"/></g><g id="node-id-5" class="node graph-node" style="" transform="translate(27.8203125,330)"><g class="node-item node-item-type node-item-type-layer" transform="translate(0,0)"><path d="M5,0h108.484375a5,5 0 0 1 5,5v16a0,0 0 0 1 0,0h-118.484375a0,0 0 0 1 0,0v-16a5,5 0 0 1 5,-5z" style="stroke: rgb(0, 0, 0); fill: rgb(51, 85, 136); stroke-width: 0;"/><text x="6" y="15" style="font-family: -apple-system, BlinkMacSystemFont, &quot;Segoe WPC&quot;, &quot;Segoe UI&quot;, Ubuntu, &quot;Droid Sans&quot;, sans-serif, &quot;PingFang SC&quot;; font-size: 11px; text-rendering: geometricprecision; user-select: none; fill: rgb(255, 255, 255);">conv2d</text></g><g class="node-argument-list" transform="translate(0,21)"><path d="M0,0h118.484375a0,0 0 0 1 0,0v27a5,5 0 0 1 -5,5h-108.484375a5,5 0 0 1 -5,-5v-27a0,0 0 0 1 0,0z" style="stroke: rgb(0, 0, 0); fill: rgb(255, 255, 255); stroke-width: 0;"/><g class="node-argument"><rect rx="3" ry="3" x="3" y="3" width="112.484375" height="13" style="fill: transparent;"/><text xml:space="preserve" x="6" y="13" style="font-family: -apple-system, BlinkMacSystemFont, &quot;Segoe WPC&quot;, &quot;Segoe UI&quot;, Ubuntu, &quot;Droid Sans&quot;, sans-serif, &quot;PingFang SC&quot;; font-size: 9px; font-weight: normal; text-rendering: geometricprecision; user-select: none;"><title>float32[128,64,3,3]</title><tspan style="font-weight: bold;">weight</tspan><tspan>〈128×64×3×3〉</tspan></text></g><g class="node-argument"><rect rx="3" ry="3" x="3" y="16" width="112.484375" height="13" style="fill: transparent;"/><text xml:space="preserve" x="6" y="26" style="font-family: -apple-system, BlinkMacSystemFont, &quot;Segoe WPC&quot;, &quot;Segoe UI&quot;, Ubuntu, &quot;Droid Sans&quot;, sans-serif, &quot;PingFang SC&quot;; font-size: 9px; font-weight: normal; text-rendering: geometricprecision; user-select: none;"><title>float32[128]</title><tspan style="font-weight: bold;">bias</tspan><tspan>〈128〉</tspan></text></g><line class="node" x1="0" x2="118.484375" y1="0" y2="0" style="stroke: rgb(51, 51, 51); fill: none; stroke-width: 1px;"/></g><path class="node node-border" d="M5,0h108.484375a5,5 0 0 1 5,5v43a5,5 0 0 1 -5,5h-108.484375a5,5 0 0 1 -5,-5v-43a5,5 0 0 1 5,-5z" style="stroke: rgb(51, 51, 51); fill: none; stroke-width: 1px;"/></g><g id="node-id-6" class="node graph-node" style="" transform="translate(70.171875,403)"><g class="node-item node-item-type node-item-type-activation" transform="translate(0,0)"><path d="M5,0h23.78125a5,5 0 0 1 5,5v11a5,5 0 0 1 -5,5h-23.78125a5,5 0 0 1 -5,-5v-11a5,5 0 0 1 5,-5z" style="stroke: rgb(0, 0, 0); fill: rgb(112, 41, 33); stroke-width: 0;"/><text x="6" y="15" style="font-family: -apple-system, BlinkMacSystemFont, &quot;Segoe WPC&quot;, &quot;Segoe UI&quot;, Ubuntu, &quot;Droid Sans&quot;, sans-serif, &quot;PingFang SC&quot;; font-size: 11px; text-rendering: geometricprecision; user-select: none; fill: rgb(255, 255, 255);">relu</text></g><path class="node node-border" d="M5,0h23.78125a5,5 0 0 1 5,5v11a5,5 0 0 1 -5,5h-23.78125a5,5 0 0 1 -5,-5v-11a5,5 0 0 1 5,-5z" style="stroke: rgb(51, 51, 51); fill: none; stroke-width: 1px;"/></g><g id="node-id-7" class="node graph-node" style="" transform="translate(47.8515625,444)"><g class="node-item node-item-type node-item-type-pool" transform="translate(0,0)"><path d="M5,0h68.421875a5,5 0 0 1 5,5v11a5,5 0 0 1 -5,5h-68.421875a5,5 0 0 1 -5,-5v-11a5,5 0 0 1 5,-5z" style="stroke: rgb(0, 0, 0); fill: rgb(51, 85, 51); stroke-width: 0;"/><text x="6" y="15" style="font-family: -apple-system, BlinkMacSystemFont, &quot;Segoe WPC&quot;, &quot;Segoe UI&quot;, Ubuntu, &quot;Droid Sans&quot;, sans-serif, &quot;PingFang SC&quot;; font-size: 11px; text-rendering: geometricprecision; user-select: none; fill: rgb(255, 255, 255);">max_pool2d</text></g><path class="node node-border" d="M5,0h68.421875a5,5 0 0 1 5,5v11a5,5 0 0 1 -5,5h-68.421875a5,5 0 0 1 -5,-5v-11a5,5 0 0 1 5,-5z" style="stroke: rgb(51, 51, 51); fill: none; stroke-width: 1px;"/></g><g id="node-id-8" class="node graph-node" style="" transform="translate(25.8203125,485)"><g class="node-item node-item-type node-item-type-layer" transform="translate(0,0)"><path d="M5,0h112.484375a5,5 0 0 1 5,5v16a0,0 0 0 1 0,0h-122.484375a0,0 0 0 1 0,0v-16a5,5 0 0 1 5,-5z" style="stroke: rgb(0, 0, 0); fill: rgb(51, 85, 136); stroke-width: 0;"/><text x="6" y="15" style="font-family: -apple-system, BlinkMacSystemFont, &quot;Segoe WPC&quot;, &quot;Segoe UI&quot;, Ubuntu, &quot;Droid Sans&quot;, sans-serif, &quot;PingFang SC&quot;; font-size: 11px; text-rendering: geometricprecision; user-select: none; fill: rgb(255, 255, 255);">conv2d</text></g><g class="node-argument-list" transform="translate(0,21)"><path d="M0,0h122.484375a0,0 0 0 1 0,0v27a5,5 0 0 1 -5,5h-112.484375a5,5 0 0 1 -5,-5v-27a0,0 0 0 1 0,0z" style="stroke: rgb(0, 0, 0); fill: rgb(255, 255, 255); stroke-width: 0;"/><g class="node-argument"><rect rx="3" ry="3" x="3" y="3" width="116.484375" height="13" style="fill: transparent;"/><text xml:space="preserve" x="6" y="13" style="font-family: -apple-system, BlinkMacSystemFont, &quot;Segoe WPC&quot;, &quot;Segoe UI&quot;, Ubuntu, &quot;Droid Sans&quot;, sans-serif, &quot;PingFang SC&quot;; font-size: 9px; font-weight: normal; text-rendering: geometricprecision; user-select: none;"><title>float32[128,128,3,3]</title><tspan style="font-weight: bold;">weight</tspan><tspan>〈128×128×3×3〉</tspan></text></g><g class="node-argument"><rect rx="3" ry="3" x="3" y="16" width="116.484375" height="13" style="fill: transparent;"/><text xml:space="preserve" x="6" y="26" style="font-family: -apple-system, BlinkMacSystemFont, &quot;Segoe WPC&quot;, &quot;Segoe UI&quot;, Ubuntu, &quot;Droid Sans&quot;, sans-serif, &quot;PingFang SC&quot;; font-size: 9px; font-weight: normal; text-rendering: geometricprecision; user-select: none;"><title>float32[128]</title><tspan style="font-weight: bold;">bias</tspan><tspan>〈128〉</tspan></text></g><line class="node" x1="0" x2="122.484375" y1="0" y2="0" style="stroke: rgb(51, 51, 51); fill: none; stroke-width: 1px;"/></g><path class="node node-border" d="M5,0h112.484375a5,5 0 0 1 5,5v43a5,5 0 0 1 -5,5h-112.484375a5,5 0 0 1 -5,-5v-43a5,5 0 0 1 5,-5z" style="stroke: rgb(51, 51, 51); fill: none; stroke-width: 1px;"/></g><g id="node-id-9" class="node graph-node" style="" transform="translate(70.171875,558)"><g class="node-item node-item-type node-item-type-activation" transform="translate(0,0)"><path d="M5,0h23.78125a5,5 0 0 1 5,5v11a5,5 0 0 1 -5,5h-23.78125a5,5 0 0 1 -5,-5v-11a5,5 0 0 1 5,-5z" style="stroke: rgb(0, 0, 0); fill: rgb(112, 41, 33); stroke-width: 0;"/><text x="6" y="15" style="font-family: -apple-system, BlinkMacSystemFont, &quot;Segoe WPC&quot;, &quot;Segoe UI&quot;, Ubuntu, &quot;Droid Sans&quot;, sans-serif, &quot;PingFang SC&quot;; font-size: 11px; text-rendering: geometricprecision; user-select: none; fill: rgb(255, 255, 255);">relu</text></g><path class="node node-border" d="M5,0h23.78125a5,5 0 0 1 5,5v11a5,5 0 0 1 -5,5h-23.78125a5,5 0 0 1 -5,-5v-11a5,5 0 0 1 5,-5z" style="stroke: rgb(51, 51, 51); fill: none; stroke-width: 1px;"/></g><g id="node-id-10" class="node graph-node" style="" transform="translate(0,599.0205078125)"><g class="node-item node-item-type" transform="translate(0,0)"><path d="M5,0h24.796875a5,5 0 0 1 5,5v11a5,5 0 0 1 -5,5h-24.796875a5,5 0 0 1 -5,-5v-11a5,5 0 0 1 5,-5z" style="stroke: rgb(0, 0, 0); fill: rgb(0, 0, 0); stroke-width: 0;"/><text x="6" y="15" style="font-family: -apple-system, BlinkMacSystemFont, &quot;Segoe WPC&quot;, &quot;Segoe UI&quot;, Ubuntu, &quot;Droid Sans&quot;, sans-serif, &quot;PingFang SC&quot;; font-size: 11px; text-rendering: geometricprecision; user-select: none; fill: rgb(255, 255, 255);">size</text></g><path class="node node-border" d="M5,0h24.796875a5,5 0 0 1 5,5v11a5,5 0 0 1 -5,5h-24.796875a5,5 0 0 1 -5,-5v-11a5,5 0 0 1 5,-5z" style="stroke: rgb(51, 51, 51); fill: none; stroke-width: 1px;"/></g><g id="node-id-11" class="node graph-node" style="" transform="translate(2.5546875,640.041015625)"><g class="node-item node-item-type" transform="translate(0,0)"><path d="M5,0h19.6875a5,5 0 0 1 5,5v11a5,5 0 0 1 -5,5h-19.6875a5,5 0 0 1 -5,-5v-11a5,5 0 0 1 5,-5z" style="stroke: rgb(0, 0, 0); fill: rgb(0, 0, 0); stroke-width: 0;"/><text x="6" y="15" style="font-family: -apple-system, BlinkMacSystemFont, &quot;Segoe WPC&quot;, &quot;Segoe UI&quot;, Ubuntu, &quot;Droid Sans&quot;, sans-serif, &quot;PingFang SC&quot;; font-size: 11px; text-rendering: geometricprecision; user-select: none; fill: rgb(255, 255, 255);">len</text></g><path class="node node-border" d="M5,0h19.6875a5,5 0 0 1 5,5v11a5,5 0 0 1 -5,5h-19.6875a5,5 0 0 1 -5,-5v-11a5,5 0 0 1 5,-5z" style="stroke: rgb(51, 51, 51); fill: none; stroke-width: 1px;"/></g><g id="node-id-12" class="node graph-node" style="" transform="translate(52.2421875,640.041015625)"><g class="node-item node-item-type" transform="translate(0,0)"><path d="M5,0h19.6875a5,5 0 0 1 5,5v11a5,5 0 0 1 -5,5h-19.6875a5,5 0 0 1 -5,-5v-11a5,5 0 0 1 5,-5z" style="stroke: rgb(0, 0, 0); fill: rgb(0, 0, 0); stroke-width: 0;"/><text x="6" y="15" style="font-family: -apple-system, BlinkMacSystemFont, &quot;Segoe WPC&quot;, &quot;Segoe UI&quot;, Ubuntu, &quot;Droid Sans&quot;, sans-serif, &quot;PingFang SC&quot;; font-size: 11px; text-rendering: geometricprecision; user-select: none; fill: rgb(255, 255, 255);">len</text></g><path class="node node-border" d="M5,0h19.6875a5,5 0 0 1 5,5v11a5,5 0 0 1 -5,5h-19.6875a5,5 0 0 1 -5,-5v-11a5,5 0 0 1 5,-5z" style="stroke: rgb(51, 51, 51); fill: none; stroke-width: 1px;"/></g><g id="node-id-13" class="node graph-node" style="" transform="translate(29.828125,681.041015625)"><g class="node-item node-item-type" transform="translate(0,0)"><path d="M5,0h14.828125a5,5 0 0 1 5,5v11.041015625a5,5 0 0 1 -5,5h-14.828125a5,5 0 0 1 -5,-5v-11.041015625a5,5 0 0 1 5,-5z" style="stroke: rgb(0, 0, 0); fill: rgb(0, 0, 0); stroke-width: 0;"/><text x="6" y="15" style="font-family: -apple-system, BlinkMacSystemFont, &quot;Segoe WPC&quot;, &quot;Segoe UI&quot;, Ubuntu, &quot;Droid Sans&quot;, sans-serif, &quot;PingFang SC&quot;; font-size: 11px; text-rendering: geometricprecision; user-select: none; fill: rgb(255, 255, 255);">gt</text></g><path class="node node-border" d="M5,0h14.828125a5,5 0 0 1 5,5v11.041015625a5,5 0 0 1 -5,5h-14.828125a5,5 0 0 1 -5,-5v-11.041015625a5,5 0 0 1 5,-5z" style="stroke: rgb(51, 51, 51); fill: none; stroke-width: 1px;"/></g><g id="node-id-14" class="node graph-node" style="" transform="translate(31.7109375,738.08203125)"><g class="node-item node-item-type" transform="translate(0,0)"><path d="M5,0h11.0625a5,5 0 0 1 5,5v11a5,5 0 0 1 -5,5h-11.0625a5,5 0 0 1 -5,-5v-11a5,5 0 0 1 5,-5z" style="stroke: rgb(0, 0, 0); fill: rgb(0, 0, 0); stroke-width: 0;"/><text x="6" y="15" style="font-family: -apple-system, BlinkMacSystemFont, &quot;Segoe WPC&quot;, &quot;Segoe UI&quot;, Ubuntu, &quot;Droid Sans&quot;, sans-serif, &quot;PingFang SC&quot;; font-size: 11px; text-rendering: geometricprecision; user-select: none; fill: rgb(255, 255, 255);">If</text></g><path class="node node-border" d="M5,0h11.0625a5,5 0 0 1 5,5v11a5,5 0 0 1 -5,5h-11.0625a5,5 0 0 1 -5,-5v-11a5,5 0 0 1 5,-5z" style="stroke: rgb(51, 51, 51); fill: none; stroke-width: 1px;"/></g><g id="node-id-15" class="node graph-node" style="" transform="translate(74.69140625,599)"><g class="node-item node-item-type node-item-type-pool" transform="translate(0,0)"><path d="M5,0h116.671875a5,5 0 0 1 5,5v11.041015625a5,5 0 0 1 -5,5h-116.671875a5,5 0 0 1 -5,-5v-11.041015625a5,5 0 0 1 5,-5z" style="stroke: rgb(0, 0, 0); fill: rgb(51, 85, 51); stroke-width: 0;"/><text x="6" y="15" style="font-family: -apple-system, BlinkMacSystemFont, &quot;Segoe WPC&quot;, &quot;Segoe UI&quot;, Ubuntu, &quot;Droid Sans&quot;, sans-serif, &quot;PingFang SC&quot;; font-size: 11px; text-rendering: geometricprecision; user-select: none; fill: rgb(255, 255, 255);">adaptive_avg_pool2d</text></g><path class="node node-border" d="M5,0h116.671875a5,5 0 0 1 5,5v11.041015625a5,5 0 0 1 -5,5h-116.671875a5,5 0 0 1 -5,-5v-11.041015625a5,5 0 0 1 5,-5z" style="stroke: rgb(51, 51, 51); fill: none; stroke-width: 1px;"/></g><g id="node-id-16" class="node graph-node" style="" transform="translate(101.9296875,640.041015625)"><g class="node-item node-item-type" transform="translate(0,0)"><path d="M5,0h24.796875a5,5 0 0 1 5,5v11a5,5 0 0 1 -5,5h-24.796875a5,5 0 0 1 -5,-5v-11a5,5 0 0 1 5,-5z" style="stroke: rgb(0, 0, 0); fill: rgb(0, 0, 0); stroke-width: 0;"/><text x="6" y="15" style="font-family: -apple-system, BlinkMacSystemFont, &quot;Segoe WPC&quot;, &quot;Segoe UI&quot;, Ubuntu, &quot;Droid Sans&quot;, sans-serif, &quot;PingFang SC&quot;; font-size: 11px; text-rendering: geometricprecision; user-select: none; fill: rgb(255, 255, 255);">size</text></g><path class="node node-border" d="M5,0h24.796875a5,5 0 0 1 5,5v11a5,5 0 0 1 -5,5h-24.796875a5,5 0 0 1 -5,-5v-11a5,5 0 0 1 5,-5z" style="stroke: rgb(51, 51, 51); fill: none; stroke-width: 1px;"/></g><g id="node-id-17" class="node graph-node" style="" transform="translate(119.15234375,681.0615234375)"><g class="node-item node-item-type" transform="translate(0,0)"><path d="M5,0h27.75a5,5 0 0 1 5,5v11a5,5 0 0 1 -5,5h-27.75a5,5 0 0 1 -5,-5v-11a5,5 0 0 1 5,-5z" style="stroke: rgb(0, 0, 0); fill: rgb(0, 0, 0); stroke-width: 0;"/><text x="6" y="15" style="font-family: -apple-system, BlinkMacSystemFont, &quot;Segoe WPC&quot;, &quot;Segoe UI&quot;, Ubuntu, &quot;Droid Sans&quot;, sans-serif, &quot;PingFang SC&quot;; font-size: 11px; text-rendering: geometricprecision; user-select: none; fill: rgb(255, 255, 255);">view</text></g><path class="node node-border" d="M5,0h27.75a5,5 0 0 1 5,5v11a5,5 0 0 1 -5,5h-27.75a5,5 0 0 1 -5,-5v-11a5,5 0 0 1 5,-5z" style="stroke: rgb(51, 51, 51); fill: none; stroke-width: 1px;"/></g><g id="node-id-18" class="node graph-node" style="" transform="translate(91.26953125,722.08203125)"><g class="node-item node-item-type node-item-type-layer" transform="translate(0,0)"><path d="M5,0h83.515625a5,5 0 0 1 5,5v16a0,0 0 0 1 0,0h-93.515625a0,0 0 0 1 0,0v-16a5,5 0 0 1 5,-5z" style="stroke: rgb(0, 0, 0); fill: rgb(51, 85, 136); stroke-width: 0;"/><text x="6" y="15" style="font-family: -apple-system, BlinkMacSystemFont, &quot;Segoe WPC&quot;, &quot;Segoe UI&quot;, Ubuntu, &quot;Droid Sans&quot;, sans-serif, &quot;PingFang SC&quot;; font-size: 11px; text-rendering: geometricprecision; user-select: none; fill: rgb(255, 255, 255);">linear</text></g><g class="node-argument-list" transform="translate(0,21)"><path d="M0,0h93.515625a0,0 0 0 1 0,0v27a5,5 0 0 1 -5,5h-83.515625a5,5 0 0 1 -5,-5v-27a0,0 0 0 1 0,0z" style="stroke: rgb(0, 0, 0); fill: rgb(255, 255, 255); stroke-width: 0;"/><g class="node-argument"><rect rx="3" ry="3" x="3" y="3" width="87.515625" height="13" style="fill: transparent;"/><text xml:space="preserve" x="6" y="13" style="font-family: -apple-system, BlinkMacSystemFont, &quot;Segoe WPC&quot;, &quot;Segoe UI&quot;, Ubuntu, &quot;Droid Sans&quot;, sans-serif, &quot;PingFang SC&quot;; font-size: 9px; font-weight: normal; text-rendering: geometricprecision; user-select: none;"><title>float32[10,128]</title><tspan style="font-weight: bold;">weight</tspan><tspan>〈10×128〉</tspan></text></g><g class="node-argument"><rect rx="3" ry="3" x="3" y="16" width="87.515625" height="13" style="fill: transparent;"/><text xml:space="preserve" x="6" y="26" style="font-family: -apple-system, BlinkMacSystemFont, &quot;Segoe WPC&quot;, &quot;Segoe UI&quot;, Ubuntu, &quot;Droid Sans&quot;, sans-serif, &quot;PingFang SC&quot;; font-size: 9px; font-weight: normal; text-rendering: geometricprecision; user-select: none;"><title>float32[10]</title><tspan style="font-weight: bold;">bias</tspan><tspan>〈10〉</tspan></text></g><line class="node" x1="0" x2="93.515625" y1="0" y2="0" style="stroke: rgb(51, 51, 51); fill: none; stroke-width: 1px;"/></g><path class="node node-border" d="M5,0h83.515625a5,5 0 0 1 5,5v43a5,5 0 0 1 -5,5h-83.515625a5,5 0 0 1 -5,-5v-43a5,5 0 0 1 5,-5z" style="stroke: rgb(51, 51, 51); fill: none; stroke-width: 1px;"/></g><g class="node" style="" transform="translate(118.78515625,795.08203125)"><g class="node-item graph-item-output" transform="translate(0,0)"><path d="M5,0h28.484375a5,5 0 0 1 5,5v11a5,5 0 0 1 -5,5h-28.484375a5,5 0 0 1 -5,-5v-11a5,5 0 0 1 5,-5z" style="stroke: rgb(0, 0, 0); fill: rgb(238, 238, 238); stroke-width: 0;"/><text x="6" y="15" style="font-family: -apple-system, BlinkMacSystemFont, &quot;Segoe WPC&quot;, &quot;Segoe UI&quot;, Ubuntu, &quot;Droid Sans&quot;, sans-serif, &quot;PingFang SC&quot;; font-size: 11px; text-rendering: geometricprecision; user-select: none;">%84</text></g><path class="node node-border" d="M5,0h28.484375a5,5 0 0 1 5,5v11a5,5 0 0 1 -5,5h-28.484375a5,5 0 0 1 -5,-5v-11a5,5 0 0 1 5,-5z" style="stroke: rgb(51, 51, 51); fill: none; stroke-width: 1px;"/></g></g></g></svg>